<?xml version="1.0" encoding="utf-8"?>
<!-- Generator: Adobe Illustrator 19.1.0, SVG Export Plug-In . SVG Version: 6.00 Build 0)  -->
<svg version="1.1" xmlns="http://www.w3.org/2000/svg" xmlns:xlink="http://www.w3.org/1999/xlink" x="0px" y="0px"
	 viewBox="-488 257.8 301.6 286.2" style="enable-background:new -488 257.8 301.6 286.2;" xml:space="preserve">
<style type="text/css">
	.st0{fill:#687C8B;}
	.st1{clip-path:url(#SVGID_2_);}
	.st2{fill:url(#SVGID_3_);}
	.st3{fill:url(#SVGID_4_);}
	.st4{fill:#5AF1B6;}
	.st5{fill:#A8A8A8;}
	.st6{fill:url(#SVGID_5_);}
	.st7{fill:url(#SVGID_6_);}
</style>
<g id="Layer_3">
	<g>
		<path class="st0" d="M-418.2,460.1c3.3,2.1,6.6,3.2,9.8,3.2c3.9,0,6.6-2,6.6-5c0-7.3-17.1-3.6-17.1-15.9c0-6,5.2-10.2,12.6-10.2
			c3.1,0,6.3,0.7,9.5,1.9v6.1c-3-1.8-6.1-2.7-9-2.7c-3.7,0-6.4,1.8-6.4,4.7c0,7,17.1,3.5,17.1,15.9c0,6.2-5.3,10.5-12.8,10.5
			c-3.4,0-6.9-0.8-10.3-2.4C-418.2,466.2-418.2,460.1-418.2,460.1z"/>
		<path class="st0" d="M-380.7,441.8c6.7,0,11.3,5.3,11.3,12.8c0,0.8,0.1,1.5-0.1,2.4h-17.4c0.4,3.9,3.5,6.6,7.8,6.6
			c2.4,0,5-0.8,7.6-2.4v5.5c-2.9,1.3-5.8,2-8.7,2c-7.7,0-13.2-5.6-13.2-13.6C-393.3,447.3-388,441.8-380.7,441.8z M-375.7,452.8
			c-0.2-3.5-2.3-5.9-5.2-5.9c-3.2,0-5.6,2.4-5.9,5.9H-375.7z"/>
		<path class="st0" d="M-343.5,479.2h-6.6v-13c-2,1.6-4.2,2.4-6.5,2.4c-6.8,0-11.6-5.5-11.6-13.4s4.8-13.4,11.6-13.4
			c2.3,0,4.5,0.8,6.5,2.4v-1.7h6.6V479.2z M-355.2,463c1.9,0,3.6-0.8,5.1-2.3v-11c-1.5-1.5-3.2-2.3-5.1-2.3c-3.7,0-6.3,3.1-6.3,7.8
			C-361.5,459.9-359,463-355.2,463z"/>
		<path class="st0" d="M-315.8,468h-6.6v-2.2c-2.3,1.9-4.8,2.9-7.4,2.9c-5.4,0-9.1-3.9-9.1-9.2v-17h6.6v15.8c0,2.7,1.8,4.7,4.5,4.7
			c1.9,0,3.7-0.9,5.5-2.7v-17.8h6.6L-315.8,468L-315.8,468z"/>
		<path class="st0" d="M-307.7,431.6c2.2,0,3.7,1.5,3.7,3.7s-1.5,3.7-3.7,3.7c-2.2,0-3.7-1.5-3.7-3.7S-309.9,431.6-307.7,431.6z
			 M-311,442.4h6.6V468h-6.6V442.4z"/>
		<path class="st0" d="M-299.5,442.4h6.6v2.2c2.4-1.9,4.9-2.8,7.5-2.8c5.3,0,9.1,3.7,9.1,9.2v17h-6.7v-15.8c0-2.7-1.8-4.7-4.5-4.7
			c-1.9,0-3.8,0.9-5.5,2.7V468h-6.6v-25.6H-299.5z"/>
		<path class="st0" d="M-272.7,461.1c2.5,1.6,5,2.4,7.4,2.4c2.3,0,3.9-1.2,3.9-2.8c0-4.3-11.9-2-11.9-11c0-4.7,4-7.9,9.8-7.9
			c2.5,0,4.9,0.5,7.3,1.5v5.7c-2.2-1.3-4.5-2-6.8-2c-2.2,0-3.7,1-3.7,2.6c0,4,11.9,1.8,11.9,11c0,4.8-4.1,8.1-10,8.1
			c-2.5,0-5.1-0.6-7.8-1.7v-5.9H-272.7z"/>
	</g>
</g>
<g id="Layer_1">
</g>
<g id="Layer_2_1_">
	<g>
		<defs>
			<path id="SVGID_1_" d="M-283.3,422.3h-117.3v-105h117.3V422.3z M-341.2,370.1c1.2,2.2,4,2.9,6.1,1.6s2.9-4,1.6-6.1
				c-1.2-2.2-4-2.9-6.1-1.6S-342.4,368-341.2,370.1z"/>
		</defs>
		<clipPath id="SVGID_2_">
			<use xlink:href="#SVGID_1_"  style="overflow:visible;"/>
		</clipPath>
		<g id="Layer_1_1_" class="st1">
			<g>
				
					<linearGradient id="SVGID_3_" gradientUnits="userSpaceOnUse" x1="-1039.265" y1="1542.2489" x2="-1063.1989" y2="1489.9779" gradientTransform="matrix(-0.5014 -0.8652 -0.8652 0.5014 447.5782 -1315.4265)">
					<stop  offset="0" style="stop-color:#4AD398"/>
					<stop  offset="1" style="stop-color:#5AF1B6"/>
				</linearGradient>
				<path class="st2" d="M-296.5,344.5c-13-22.5-41.8-30.2-64.3-17.1s-30.2,41.8-17.1,64.3L-296.5,344.5z"/>
				
					<linearGradient id="SVGID_4_" gradientUnits="userSpaceOnUse" x1="-1089.6416" y1="1476.0375" x2="-1077.7458" y2="1575.2532" gradientTransform="matrix(-0.5014 -0.8652 -0.8652 0.5014 447.5782 -1315.4265)">
					<stop  offset="0" style="stop-color:#4AD398"/>
					<stop  offset="1" style="stop-color:#5AF1B6"/>
				</linearGradient>
				<path class="st3" d="M-296.5,344.5c13,22.5,5.4,51.3-17.1,64.3s-51.3,5.4-64.3-17.1L-296.5,344.5z"/>
				<polygon class="st4" points="-337.3,395.8 -361.3,381.9 -361.3,353.9 -337.4,339.9 -313.4,353.9 -313.3,381.8 				"/>
				<path class="st5" d="M-337.4,339.9"/>
				
					<linearGradient id="SVGID_5_" gradientUnits="userSpaceOnUse" x1="-1000.2106" y1="1523.0293" x2="-1044.6542" y2="1523.4491" gradientTransform="matrix(-0.5014 -0.8652 -0.8652 0.5014 447.5782 -1315.4265)">
					<stop  offset="0" style="stop-color:#4AD398"/>
					<stop  offset="1" style="stop-color:#5AF1B6"/>
				</linearGradient>
				<path class="st6" d="M-360.9,327.4c-7.4,4.3-13.2,10.3-17.2,17.3l16.8,9.5l23.9-14l0.1-19.1C-345.2,321-353.4,323-360.9,327.4z"
					/>
				
					<linearGradient id="SVGID_6_" gradientUnits="userSpaceOnUse" x1="-1074.4878" y1="1518.9823" x2="-1116.7444" y2="1524.9342" gradientTransform="matrix(-0.5014 -0.8652 -0.8652 0.5014 447.5782 -1315.4265)">
					<stop  offset="0" style="stop-color:#4AD398"/>
					<stop  offset="1" style="stop-color:#5AF1B6"/>
				</linearGradient>
				<path class="st7" d="M-313.6,408.7c7.4-4.3,13.2-10.3,17.2-17.3l-16.8-9.5l-23.9,14l-0.1,19.1
					C-329.3,415.1-321.1,413.1-313.6,408.7z"/>
				<path class="st5" d="M-378.1,391.5"/>
			</g>
		</g>
		<g id="Layer_2" class="st1">
		</g>
	</g>
</g>
</svg>
